<svg id="ICON" xmlns="http://www.w3.org/2000/svg" viewBox="0 0 512 512"><defs><style>.cls-1{fill:#e4a761;}.cls-2{fill:#ecc38c;}.cls-3{fill:#cf8d53;}.cls-4{fill:#484c55;}.cls-5{fill:#383b41;}.cls-6{fill:#67ab65;}.cls-7{fill:#548c52;}</style></defs><title>Cooking</title><ellipse class="cls-1" cx="255.09" cy="312.23" rx="99.37" ry="83.92"/><ellipse class="cls-2" cx="255.09" cy="314.27" rx="73.33" ry="61.93"/><ellipse class="cls-1" cx="255.09" cy="315.23" rx="55.21" ry="46.63"/><ellipse class="cls-2" cx="255.09" cy="315.23" rx="33.67" ry="28.43"/><ellipse class="cls-1" cx="255.09" cy="315.23" rx="18.73" ry="15.82"/><ellipse class="cls-3" cx="164.86" cy="364.62" rx="92.05" ry="77.74"/><ellipse class="cls-2" cx="164.86" cy="366.5" rx="67.93" ry="57.37"/><ellipse class="cls-3" cx="164.86" cy="367.39" rx="51.14" ry="43.19"/><ellipse class="cls-2" cx="164.86" cy="367.39" rx="31.19" ry="26.34"/><ellipse class="cls-3" cx="164.86" cy="367.39" rx="17.35" ry="14.65"/><ellipse class="cls-3" cx="347.14" cy="364.62" rx="92.05" ry="77.74"/><ellipse class="cls-2" cx="347.14" cy="366.5" rx="67.93" ry="57.37"/><ellipse class="cls-3" cx="347.14" cy="367.39" rx="51.14" ry="43.19"/><ellipse class="cls-2" cx="347.14" cy="367.39" rx="31.19" ry="26.34"/><ellipse class="cls-3" cx="347.14" cy="367.39" rx="17.35" ry="14.65"/><path class="cls-4" d="M415.86,419.13v38.92a28.39,28.39,0,0,1-28.38,28.38H128.73a28.4,28.4,0,0,1-28.39-28.38V419.13Z"/><path class="cls-4" d="M476,370.8c0,25.73-22.86,49.1-60.14,66.41C375.75,455.84,319,467.47,256,467.47q-12.65,0-24.95-.63c-50.84-2.51-96.4-12.63-130.71-27.73C60.58,421.62,36,397.48,36,370.8Z"/><path class="cls-5" d="M253.94,486.43H128.73a28.4,28.4,0,0,1-28.39-28.38V439.11C60.58,421.62,36,397.48,36,370.8H177.71a245.46,245.46,0,0,0,19.14,48.33,203.57,203.57,0,0,0,34.2,47.71A161.14,161.14,0,0,0,253.94,486.43Z"/><path class="cls-6" d="M269.27,222.12c17.53-12,41.61-7.41,41.61-7.41s-4.33,24.14-21.86,36.17-36.15,15.36-41.61,7.41S251.75,234.16,269.27,222.12Z"/><path class="cls-7" d="M310.88,214.67S306.55,238.8,289,250.83s-36.16,15.36-41.62,7.41c-1.52-2.22-1.85-5.09-1.16-8.33,8.38.1,20.09-4,31.32-11.74,9.4-6.45,15-16.41,18.2-24.24A68.58,68.58,0,0,1,310.88,214.67Z"/><path class="cls-6" d="M313.85,285.13c18.78.88,33.27,17,33.27,17s-15.95,14.69-34.72,13.8-33.67-8.5-33.27-17S295.08,284.24,313.85,285.13Z"/><path class="cls-7" d="M347.14,302.11s-15.94,14.68-34.71,13.79-33.67-8.5-33.27-17c.1-2.37,1.41-4.57,3.63-6.48,5.84,4.54,16.3,7.89,28.33,8.46,10.07.47,19.34-3.54,25.76-7.35A60.36,60.36,0,0,1,347.14,302.11Z"/><path class="cls-6" d="M265.51,42.94c12.39,14.13,10.85,35.75,10.85,35.75s-21.64-1.28-34-15.4-17.26-30.14-10.86-35.75S253.11,28.82,265.51,42.94Z"/><path class="cls-7" d="M276.4,78.69s-21.64-1.28-34-15.41-17.25-30.14-10.85-35.76c1.78-1.57,4.27-2.16,7.19-1.88.79,7.36,5.63,17.2,13.58,26.25,6.65,7.58,16,11.47,23.18,13.45A61.07,61.07,0,0,1,276.4,78.69Z"/><path class="cls-6" d="M215.65,127.6c4.14,18.34-7.54,36.6-7.54,36.6s-18.4-11.46-22.54-29.8-.77-34.71,7.54-36.59S211.51,109.27,215.65,127.6Z"/><path class="cls-7" d="M208.14,164.21s-18.39-11.46-22.53-29.79-.77-34.72,7.54-36.6c2.32-.53,4.79.15,7.22,1.78-2.82,6.84-3.27,17.81-.61,29.55C202,139,208.32,146.86,213.7,152A61.05,61.05,0,0,1,208.14,164.21Z"/><path class="cls-6" d="M342.94,135.21c7.69,17.15-.14,37.37-.14,37.37s-20.31-7.59-28-24.74-7.63-33.87.14-37.36S335.24,118.07,342.94,135.21Z"/><path class="cls-7" d="M342.83,172.58s-20.3-7.58-28-24.73-7.63-33.88.14-37.37c2.17-1,4.72-.81,7.43.31-1.41,7.27.33,18.11,5.26,29.09,4.12,9.2,11.9,15.66,18.2,19.67A60.88,60.88,0,0,1,342.83,172.58Z"/><path class="cls-6" d="M190.36,288.41c14.77-11.62,36.28-8.92,36.28-8.92s-2.45,21.54-17.22,33.16-31,15.61-36.28,8.91S175.58,300,190.36,288.41Z"/><path class="cls-7" d="M226.63,279.46s-2.44,21.53-17.21,33.15-31,15.6-36.29,8.9c-1.48-1.86-1.93-4.38-1.5-7.28,7.39-.39,17.49-4.7,27-12.14,7.93-6.23,12.31-15.33,14.68-22.42A61.07,61.07,0,0,1,226.63,279.46Z"/></svg>